<svg version="1.0" xmlns="http://www.w3.org/2000/svg" width="149.333" height="170.667" viewBox="0 0 112 128">
  <path
    fill="#1976d2"
    d="M28 16L.5 31.8l-.3 32L0 95.7l28.1 16.1 28.1 16 27.9-16L112 95.7V32.2L86.8 17.7C72.9 9.8 60.1 2.6 58.5 1.7L55.4.2 28 16zm43 4.6C87.7 30 94 34 94 35.1c0 .4-2 2-4.5 3.4l-4.4 2.6L70.6 33l-14.5-8.2L41.5 33 27 41.2l-4.6-2.7c-2.5-1.5-4.4-3.1-4.2-3.7.7-2 35-21.8 37.8-21.8.9 0 7.6 3.4 15 7.6zM51 51.7v9.2l-8.4 4.5C38.1 68 33.8 70 33.1 70c-1.2 0-1.4-9.9-.3-16.5.7-3.6 1.3-4.3 8.7-8.6 5.5-3.3 8.2-4.4 8.7-3.6.4.7.8 5.3.8 10.4zm19.5-6.9c5.5 3.3 8.1 5.4 8.6 7.2 1.2 4.4 1 18-.2 18-.7 0-5-2-9.5-4.6L61 60.9V50.4c0-5.7.3-10.4.8-10.3.4 0 4.3 2.2 8.7 4.7zM101 67.2l-.1 23.3-19.2 10.7c-13.5 7.5-19.4 10.4-19.9 9.5-.4-.7-.8-3.3-.8-5.8v-4.7l14.8-8.3 14.7-8.4.3-17 .2-17 4.8-2.6c2.6-1.5 4.8-2.7 5-2.8.1 0 .2 10.4.2 23.1zm-84.5-20l4.5 2.2.2 17 .3 17 14.8 8.4 14.7 8.4-.1 4.2c-.1 8.5.5 8.6-20.6-3.2L11.1 90.5 11 67.7c0-12.5.2-22.7.5-22.7.2 0 2.5 1 5 2.2zm46.6 26.9c7.1 3.8 9.6 6.3 8.1 8.2-.6.7-4.3 2.8-8.2 4.7l-7.2 3.5-7.6-4c-4.2-2.3-7.8-4.7-8-5.5-.3-1.7 12.2-9.9 15.2-10 1 0 4.4 1.4 7.7 3.1z" />
</svg>