<svg width="180" height="70" viewBox="0 0 180 70" fill="none" xmlns="http://www.w3.org/2000/svg">
<path d="M33 2.91667C33 1.30667 31.659 0 30 0H12C10.341 0 9 1.30667 9 2.91667V8.75H0L0 61.25H9V67.0833C9 68.6933 10.341 70 12 70H30C31.659 70 33 68.6933 33 67.0833V61.25L147 61.25V67.0833C147 68.6933 148.341 70 150 70H168C169.659 70 171 68.6933 171 67.0833V61.25H180V8.75L171 8.75V2.91667C171 1.30667 169.659 0 168 0H150C148.341 0 147 1.30667 147 2.91667V8.75L33 8.75V2.91667ZM27 64.1667H15V61.25L15 8.75V5.83334H27V8.75L27 61.25V64.1667ZM165 5.83334V8.75V61.25V64.1667H153V5.83334H165Z" fill="black"/>
</svg>
