<svg width="180" height="99" viewBox="0 0 180 99" fill="none" xmlns="http://www.w3.org/2000/svg">
<path fill-rule="evenodd" clip-rule="evenodd" d="M0 0H180V99H0V0ZM26.5574 36C29.2735 36 31.4754 33.7614 31.4754 31C31.4754 28.2386 29.2735 26 26.5574 26C23.8412 26 21.6393 28.2386 21.6393 31C21.6393 33.7614 23.8412 36 26.5574 36ZM7.37705 10C8.73513 10 9.83607 8.88071 9.83607 7.5C9.83607 6.11929 8.73513 5 7.37705 5C6.01897 5 4.91803 6.11929 4.91803 7.5C4.91803 8.88071 6.01897 10 7.37705 10ZM7.37705 94C8.73513 94 9.83607 92.8807 9.83607 91.5C9.83607 90.1193 8.73513 89 7.37705 89C6.01897 89 4.91803 90.1193 4.91803 91.5C4.91803 92.8807 6.01897 94 7.37705 94ZM172.623 10C173.981 10 175.082 8.88071 175.082 7.5C175.082 6.11929 173.981 5 172.623 5C171.265 5 170.164 6.11929 170.164 7.5C170.164 8.88071 171.265 10 172.623 10ZM172.623 94C173.981 94 175.082 92.8807 175.082 91.5C175.082 90.1193 173.981 89 172.623 89C171.265 89 170.164 90.1193 170.164 91.5C170.164 92.8807 171.265 94 172.623 94ZM136.23 94C137.588 94 138.689 92.8807 138.689 91.5C138.689 90.1193 137.588 89 136.23 89C134.871 89 133.77 90.1193 133.77 91.5C133.77 92.8807 134.871 94 136.23 94ZM104.754 94C106.112 94 107.213 92.8807 107.213 91.5C107.213 90.1193 106.112 89 104.754 89C103.396 89 102.295 90.1193 102.295 91.5C102.295 92.8807 103.396 94 104.754 94ZM73.2787 94C74.6368 94 75.7377 92.8807 75.7377 91.5C75.7377 90.1193 74.6368 89 73.2787 89C71.9206 89 70.8197 90.1193 70.8197 91.5C70.8197 92.8807 71.9206 94 73.2787 94ZM41.8033 93C43.1614 93 44.2623 91.8807 44.2623 90.5C44.2623 89.1193 43.1614 88 41.8033 88C40.4452 88 39.3443 89.1193 39.3443 90.5C39.3443 91.8807 40.4452 93 41.8033 93ZM123.443 9C124.801 9 125.902 7.88071 125.902 6.5C125.902 5.11929 124.801 4 123.443 4C122.085 4 120.984 5.11929 120.984 6.5C120.984 7.88071 122.085 9 123.443 9ZM150 9C151.358 9 152.459 7.88071 152.459 6.5C152.459 5.11929 151.358 4 150 4C148.642 4 147.541 5.11929 147.541 6.5C147.541 7.88071 148.642 9 150 9ZM172.623 44C173.981 44 175.082 42.8807 175.082 41.5C175.082 40.1193 173.981 39 172.623 39C171.265 39 170.164 40.1193 170.164 41.5C170.164 42.8807 171.265 44 172.623 44ZM171.639 68.5C172.997 68.5 174.098 67.3807 174.098 66C174.098 64.6193 172.997 63.5 171.639 63.5C170.281 63.5 169.18 64.6193 169.18 66C169.18 67.3807 170.281 68.5 171.639 68.5ZM8.36066 44C9.71873 44 10.8197 42.8807 10.8197 41.5C10.8197 40.1193 9.71873 39 8.36066 39C7.00258 39 5.90164 40.1193 5.90164 41.5C5.90164 42.8807 7.00258 44 8.36066 44ZM7.37705 68.5C8.73513 68.5 9.83607 67.3807 9.83607 66C9.83607 64.6193 8.73513 63.5 7.37705 63.5C6.01897 63.5 4.91803 64.6193 4.91803 66C4.91803 67.3807 6.01897 68.5 7.37705 68.5ZM91.9672 11C93.3253 11 94.4262 9.88071 94.4262 8.5C94.4262 7.11929 93.3253 6 91.9672 6C90.6091 6 89.5082 7.11929 89.5082 8.5C89.5082 9.88071 90.6091 11 91.9672 11ZM57.541 9C58.8991 9 60 7.88071 60 6.5C60 5.11929 58.8991 4 57.541 4C56.1829 4 55.082 5.11929 55.082 6.5C55.082 7.88071 56.1829 9 57.541 9ZM26.0656 10C27.4237 10 28.5246 8.88071 28.5246 7.5C28.5246 6.11929 27.4237 5 26.0656 5C24.7075 5 23.6066 6.11929 23.6066 7.5C23.6066 8.88071 24.7075 10 26.0656 10ZM26.5574 60.5C29.2735 60.5 31.4754 58.2614 31.4754 55.5C31.4754 52.7386 29.2735 50.5 26.5574 50.5C23.8412 50.5 21.6393 52.7386 21.6393 55.5C21.6393 58.2614 23.8412 60.5 26.5574 60.5ZM26.5574 85C29.2735 85 31.4754 82.7614 31.4754 80C31.4754 77.2386 29.2735 75 26.5574 75C23.8412 75 21.6393 77.2386 21.6393 80C21.6393 82.7614 23.8412 85 26.5574 85ZM42.2951 24C45.0112 24 47.2131 21.7614 47.2131 19C47.2131 16.2386 45.0112 14 42.2951 14C39.5789 14 37.377 16.2386 37.377 19C37.377 21.7614 39.5789 24 42.2951 24ZM42.2951 48.5C45.0112 48.5 47.2131 46.2614 47.2131 43.5C47.2131 40.7386 45.0112 38.5 42.2951 38.5C39.5789 38.5 37.377 40.7386 37.377 43.5C37.377 46.2614 39.5789 48.5 42.2951 48.5ZM42.2951 73C45.0112 73 47.2131 70.7614 47.2131 68C47.2131 65.2386 45.0112 63 42.2951 63C39.5789 63 37.377 65.2386 37.377 68C37.377 70.7614 39.5789 73 42.2951 73ZM58.0328 35C60.7489 35 62.9508 32.7614 62.9508 30C62.9508 27.2386 60.7489 25 58.0328 25C55.3166 25 53.1148 27.2386 53.1148 30C53.1148 32.7614 55.3166 35 58.0328 35ZM58.0328 59.5C60.7489 59.5 62.9508 57.2614 62.9508 54.5C62.9508 51.7386 60.7489 49.5 58.0328 49.5C55.3166 49.5 53.1148 51.7386 53.1148 54.5C53.1148 57.2614 55.3166 59.5 58.0328 59.5ZM58.0328 84C60.7489 84 62.9508 81.7614 62.9508 79C62.9508 76.2386 60.7489 74 58.0328 74C55.3166 74 53.1148 76.2386 53.1148 79C53.1148 81.7614 55.3166 84 58.0328 84ZM73.7705 23C76.4866 23 78.6885 20.7614 78.6885 18C78.6885 15.2386 76.4866 13 73.7705 13C71.0543 13 68.8525 15.2386 68.8525 18C68.8525 20.7614 71.0543 23 73.7705 23ZM73.7705 47.5C76.4866 47.5 78.6885 45.2614 78.6885 42.5C78.6885 39.7386 76.4866 37.5 73.7705 37.5C71.0543 37.5 68.8525 39.7386 68.8525 42.5C68.8525 45.2614 71.0543 47.5 73.7705 47.5ZM73.7705 72C76.4866 72 78.6885 69.7614 78.6885 67C78.6885 64.2386 76.4866 62 73.7705 62C71.0543 62 68.8525 64.2386 68.8525 67C68.8525 69.7614 71.0543 72 73.7705 72ZM89.5082 35C92.2244 35 94.4262 32.7614 94.4262 30C94.4262 27.2386 92.2244 25 89.5082 25C86.792 25 84.5902 27.2386 84.5902 30C84.5902 32.7614 86.792 35 89.5082 35ZM89.5082 59.5C92.2244 59.5 94.4262 57.2614 94.4262 54.5C94.4262 51.7386 92.2244 49.5 89.5082 49.5C86.792 49.5 84.5902 51.7386 84.5902 54.5C84.5902 57.2614 86.792 59.5 89.5082 59.5ZM89.5082 84C92.2244 84 94.4262 81.7614 94.4262 79C94.4262 76.2386 92.2244 74 89.5082 74C86.792 74 84.5902 76.2386 84.5902 79C84.5902 81.7614 86.792 84 89.5082 84ZM105.246 23C107.962 23 110.164 20.7614 110.164 18C110.164 15.2386 107.962 13 105.246 13C102.53 13 100.328 15.2386 100.328 18C100.328 20.7614 102.53 23 105.246 23ZM105.246 47.5C107.962 47.5 110.164 45.2614 110.164 42.5C110.164 39.7386 107.962 37.5 105.246 37.5C102.53 37.5 100.328 39.7386 100.328 42.5C100.328 45.2614 102.53 47.5 105.246 47.5ZM105.246 72C107.962 72 110.164 69.7614 110.164 67C110.164 64.2386 107.962 62 105.246 62C102.53 62 100.328 64.2386 100.328 67C100.328 69.7614 102.53 72 105.246 72ZM120.984 34C123.7 34 125.902 31.7614 125.902 29C125.902 26.2386 123.7 24 120.984 24C118.267 24 116.066 26.2386 116.066 29C116.066 31.7614 118.267 34 120.984 34ZM120.984 58.5C123.7 58.5 125.902 56.2614 125.902 53.5C125.902 50.7386 123.7 48.5 120.984 48.5C118.267 48.5 116.066 50.7386 116.066 53.5C116.066 56.2614 118.267 58.5 120.984 58.5ZM120.984 83C123.7 83 125.902 80.7614 125.902 78C125.902 75.2386 123.7 73 120.984 73C118.267 73 116.066 75.2386 116.066 78C116.066 80.7614 118.267 83 120.984 83ZM136.721 22C139.437 22 141.639 19.7614 141.639 17C141.639 14.2386 139.437 12 136.721 12C134.005 12 131.803 14.2386 131.803 17C131.803 19.7614 134.005 22 136.721 22ZM136.721 46.5C139.437 46.5 141.639 44.2614 141.639 41.5C141.639 38.7386 139.437 36.5 136.721 36.5C134.005 36.5 131.803 38.7386 131.803 41.5C131.803 44.2614 134.005 46.5 136.721 46.5ZM136.721 71C139.437 71 141.639 68.7614 141.639 66C141.639 63.2386 139.437 61 136.721 61C134.005 61 131.803 63.2386 131.803 66C131.803 68.7614 134.005 71 136.721 71ZM152.459 34C155.175 34 157.377 31.7614 157.377 29C157.377 26.2386 155.175 24 152.459 24C149.743 24 147.541 26.2386 147.541 29C147.541 31.7614 149.743 34 152.459 34ZM152.459 58.5C155.175 58.5 157.377 56.2614 157.377 53.5C157.377 50.7386 155.175 48.5 152.459 48.5C149.743 48.5 147.541 50.7386 147.541 53.5C147.541 56.2614 149.743 58.5 152.459 58.5ZM152.459 83C155.175 83 157.377 80.7614 157.377 78C157.377 75.2386 155.175 73 152.459 73C149.743 73 147.541 75.2386 147.541 78C147.541 80.7614 149.743 83 152.459 83Z" fill="black"/>
</svg>
