<svg width="180" height="99" viewBox="0 0 180 99" fill="none" xmlns="http://www.w3.org/2000/svg">
<path d="M179 1V98H1V1H179ZM11.3115 82C8.29918 82 5.88477 84.4781 5.88477 87.5C5.88477 90.5219 8.29918 93 11.3115 93C14.3238 93 16.7373 90.5219 16.7373 87.5C16.7373 84.4781 14.3238 82 11.3115 82ZM42.7871 82C39.7748 82 37.3604 84.4781 37.3604 87.5C37.3604 90.5219 39.7748 93 42.7871 93C45.7993 92.9999 48.2129 90.5218 48.2129 87.5C48.2129 84.4782 45.7993 82.0001 42.7871 82ZM74.2627 82C71.2504 82 68.8359 84.4781 68.8359 87.5C68.8359 90.5219 71.2504 93 74.2627 93C77.2748 92.9998 79.6885 90.5218 79.6885 87.5C79.6885 84.4782 77.2748 82.0002 74.2627 82ZM105.737 82C102.725 82.0002 100.312 84.4782 100.312 87.5C100.312 90.5218 102.725 92.9998 105.737 93C108.75 93 111.164 90.5219 111.164 87.5C111.164 84.4781 108.75 82 105.737 82ZM137.213 82C134.201 82.0001 131.787 84.4782 131.787 87.5C131.787 90.5218 134.201 92.9999 137.213 93C140.225 93 142.64 90.5219 142.64 87.5C142.64 84.4781 140.225 82 137.213 82ZM168.688 82C165.676 82 163.263 84.4781 163.263 87.5C163.263 90.5219 165.676 93 168.688 93C171.701 93 174.115 90.5219 174.115 87.5C174.115 84.4781 171.701 82 168.688 82ZM11.3115 59C8.29918 59 5.88477 61.4781 5.88477 64.5C5.88477 67.5219 8.29918 70 11.3115 70C14.3238 70 16.7373 67.5219 16.7373 64.5C16.7373 61.4781 14.3238 59 11.3115 59ZM168.688 59C165.676 59 163.263 61.4781 163.263 64.5C163.263 67.5219 165.676 70 168.688 70C171.701 70 174.115 67.5219 174.115 64.5C174.115 61.4781 171.701 59 168.688 59ZM58.5244 34C50.0798 34.0001 43.2627 40.9553 43.2627 49.5C43.2627 58.0447 50.0798 64.9999 58.5244 65C66.9691 65 73.7871 58.0448 73.7871 49.5C73.7871 40.9552 66.9691 34 58.5244 34ZM121.476 34C113.031 34 106.213 40.9552 106.213 49.5C106.213 58.0448 113.031 65 121.476 65C129.92 64.9999 136.737 58.0447 136.737 49.5C136.737 40.9553 129.92 34.0001 121.476 34ZM11.3115 29C8.29918 29 5.88477 31.4781 5.88477 34.5C5.88477 37.5219 8.29918 40 11.3115 40C14.3238 40 16.7373 37.5219 16.7373 34.5C16.7373 31.4781 14.3238 29 11.3115 29ZM168.688 29C165.676 29 163.263 31.4781 163.263 34.5C163.263 37.5219 165.676 40 168.688 40C171.701 40 174.115 37.5219 174.115 34.5C174.115 31.4781 171.701 29 168.688 29ZM11.3115 6C8.29918 6 5.88477 8.47808 5.88477 11.5C5.88477 14.5219 8.29918 17 11.3115 17C14.3238 17 16.7373 14.5219 16.7373 11.5C16.7373 8.4781 14.3238 6.00003 11.3115 6ZM42.7871 6C39.7748 6 37.3604 8.47808 37.3604 11.5C37.3604 14.5219 39.7748 17 42.7871 17C45.7993 16.9999 48.2129 14.5218 48.2129 11.5C48.2129 8.47816 45.7993 6.00012 42.7871 6ZM74.2627 6C71.2504 6 68.8359 8.47808 68.8359 11.5C68.8359 14.5219 71.2504 17 74.2627 17C77.2748 16.9998 79.6885 14.5218 79.6885 11.5C79.6885 8.47822 77.2748 6.00022 74.2627 6ZM105.737 6C102.725 6.00022 100.312 8.47822 100.312 11.5C100.312 14.5218 102.725 16.9998 105.737 17C108.75 17 111.164 14.5219 111.164 11.5C111.164 8.47808 108.75 6 105.737 6ZM137.213 6C134.201 6.00013 131.787 8.47815 131.787 11.5C131.787 14.5218 134.201 16.9999 137.213 17C140.225 17 142.64 14.5219 142.64 11.5C142.64 8.47808 140.225 6 137.213 6ZM168.688 6C165.676 6.00003 163.263 8.4781 163.263 11.5C163.263 14.5219 165.676 17 168.688 17C171.701 17 174.115 14.5219 174.115 11.5C174.115 8.47808 171.701 6 168.688 6Z" fill="black" stroke="black" stroke-width="2"/>
</svg>
