<svg width="180" height="99" viewBox="0 0 180 99" fill="none" xmlns="http://www.w3.org/2000/svg">
<mask id="path-1-inside-1_8788_2394" fill="white">
<path fill-rule="evenodd" clip-rule="evenodd" d="M0 0H180V99H0V0ZM38.3327 36.8182V42.5455H46.0786V63H52.9694V42.5455H60.7154V36.8182H38.3327ZM77.5452 52.9261H70.7875V47.4034H77.5693C77.5043 46.5145 77.3856 45.7432 77.2131 45.0895C76.9365 44.0412 76.4838 43.2699 75.8551 42.7756C75.2263 42.2812 74.3755 42.0341 73.3024 42.0341C72.1288 42.0341 71.2276 42.1918 70.5989 42.5071C69.9702 42.8224 69.5385 43.2741 69.3037 43.8622C69.069 44.4503 68.9433 45.1534 68.9265 45.9716H62.0357C62.2033 44.2159 62.7189 42.6179 63.5823 41.1776C64.4458 39.7372 65.6823 38.5909 67.2918 37.7386C68.9014 36.8864 70.9049 36.4602 73.3024 36.4602C75.5491 36.4602 77.5023 36.9759 79.1622 38.0071C80.8304 39.0298 82.1214 40.4957 83.0351 42.4048C83.9573 44.3054 84.4183 46.5682 84.4183 49.1932V50.7273C84.4183 53.3523 83.974 55.6108 83.0854 57.5028C82.1968 59.3864 80.9142 60.8352 79.2376 61.8494C77.561 62.8551 75.5323 63.358 73.1516 63.358C70.9887 63.358 69.09 62.983 67.4553 62.233C65.829 61.4744 64.5464 60.4091 63.6075 59.0369C62.677 57.6562 62.1698 56.0284 62.086 54.1534H68.9768C68.9433 55.4318 69.2996 56.3736 70.0456 56.9787C70.8001 57.5838 71.8354 57.8864 73.1516 57.8864C74.3755 57.8864 75.306 57.6435 75.9431 57.1577C76.5886 56.6633 77.0287 55.892 77.2634 54.8438C77.3906 54.2909 77.4845 53.6516 77.5452 52.9261ZM96.3232 36.8182H87.6217V63H94.4622V47.7614H94.6634L100.397 62.7955H104.522L110.256 47.8636H110.457V63H117.298V36.8182H108.596L102.61 51.6477H102.309L96.3232 36.8182ZM125.314 62.2969C126.89 63.0043 128.692 63.358 130.721 63.358C132.825 63.358 134.682 63.0213 136.291 62.348C137.909 61.6747 139.171 60.7457 140.076 59.5611C140.99 58.3764 141.443 57.017 141.434 55.483C141.451 53.8807 140.936 52.5511 139.888 51.4943C138.84 50.429 137.276 49.7812 135.197 49.5511V49.3466C136.731 49.1761 137.997 48.6222 138.995 47.6847C140.001 46.7472 140.495 45.5455 140.479 44.0795C140.487 42.6051 140.076 41.2969 139.246 40.1548C138.425 39.0043 137.281 38.1009 135.814 37.4446C134.355 36.7884 132.674 36.4602 130.771 36.4602C128.826 36.4602 127.104 36.8097 125.603 37.5085C124.102 38.2074 122.92 39.1705 122.057 40.3977C121.202 41.625 120.77 43.0398 120.762 44.642H127.451C127.46 44.1136 127.607 43.6449 127.892 43.2358C128.177 42.8267 128.566 42.5071 129.061 42.277C129.564 42.0469 130.134 41.9318 130.771 41.9318C131.358 41.9318 131.873 42.0426 132.318 42.2642C132.77 42.4858 133.123 42.7926 133.374 43.1847C133.626 43.5767 133.747 44.0284 133.739 44.5398C133.747 45.0682 133.6 45.5369 133.299 45.946C133.005 46.3551 132.59 46.6747 132.054 46.9048C131.526 47.1349 130.914 47.25 130.218 47.25H127.602V52.1591H130.218C130.972 52.1591 131.639 52.2741 132.217 52.5043C132.796 52.7344 133.244 53.054 133.563 53.4631C133.89 53.8722 134.049 54.3409 134.04 54.8693C134.049 55.4062 133.915 55.8835 133.638 56.3011C133.361 56.7188 132.976 57.0469 132.481 57.2855C131.987 57.5156 131.417 57.6307 130.771 57.6307C130.1 57.6307 129.505 57.5199 128.986 57.2983C128.466 57.0767 128.055 56.7699 127.753 56.3778C127.46 55.9773 127.309 55.5256 127.301 55.0227H120.259C120.267 56.6506 120.72 58.0909 121.617 59.3438C122.514 60.5966 123.746 61.581 125.314 62.2969ZM11.8033 17C14.5194 17 16.7213 14.7614 16.7213 12C16.7213 9.23858 14.5194 7 11.8033 7C9.08712 7 6.88525 9.23858 6.88525 12C6.88525 14.7614 9.08712 17 11.8033 17ZM168.197 17C170.913 17 173.115 14.7614 173.115 12C173.115 9.23858 170.913 7 168.197 7C165.481 7 163.279 9.23858 163.279 12C163.279 14.7614 165.481 17 168.197 17ZM11.8033 92C14.5194 92 16.7213 89.7614 16.7213 87C16.7213 84.2386 14.5194 82 11.8033 82C9.08712 82 6.88525 84.2386 6.88525 87C6.88525 89.7614 9.08712 92 11.8033 92ZM168.197 92C170.913 92 173.115 89.7614 173.115 87C173.115 84.2386 170.913 82 168.197 82C165.481 82 163.279 84.2386 163.279 87C163.279 89.7614 165.481 92 168.197 92Z"/>
</mask>
<path fill-rule="evenodd" clip-rule="evenodd" d="M0 0H180V99H0V0ZM38.3327 36.8182V42.5455H46.0786V63H52.9694V42.5455H60.7154V36.8182H38.3327ZM77.5452 52.9261H70.7875V47.4034H77.5693C77.5043 46.5145 77.3856 45.7432 77.2131 45.0895C76.9365 44.0412 76.4838 43.2699 75.8551 42.7756C75.2263 42.2812 74.3755 42.0341 73.3024 42.0341C72.1288 42.0341 71.2276 42.1918 70.5989 42.5071C69.9702 42.8224 69.5385 43.2741 69.3037 43.8622C69.069 44.4503 68.9433 45.1534 68.9265 45.9716H62.0357C62.2033 44.2159 62.7189 42.6179 63.5823 41.1776C64.4458 39.7372 65.6823 38.5909 67.2918 37.7386C68.9014 36.8864 70.9049 36.4602 73.3024 36.4602C75.5491 36.4602 77.5023 36.9759 79.1622 38.0071C80.8304 39.0298 82.1214 40.4957 83.0351 42.4048C83.9573 44.3054 84.4183 46.5682 84.4183 49.1932V50.7273C84.4183 53.3523 83.974 55.6108 83.0854 57.5028C82.1968 59.3864 80.9142 60.8352 79.2376 61.8494C77.561 62.8551 75.5323 63.358 73.1516 63.358C70.9887 63.358 69.09 62.983 67.4553 62.233C65.829 61.4744 64.5464 60.4091 63.6075 59.0369C62.677 57.6562 62.1698 56.0284 62.086 54.1534H68.9768C68.9433 55.4318 69.2996 56.3736 70.0456 56.9787C70.8001 57.5838 71.8354 57.8864 73.1516 57.8864C74.3755 57.8864 75.306 57.6435 75.9431 57.1577C76.5886 56.6633 77.0287 55.892 77.2634 54.8438C77.3906 54.2909 77.4845 53.6516 77.5452 52.9261ZM96.3232 36.8182H87.6217V63H94.4622V47.7614H94.6634L100.397 62.7955H104.522L110.256 47.8636H110.457V63H117.298V36.8182H108.596L102.61 51.6477H102.309L96.3232 36.8182ZM125.314 62.2969C126.89 63.0043 128.692 63.358 130.721 63.358C132.825 63.358 134.682 63.0213 136.291 62.348C137.909 61.6747 139.171 60.7457 140.076 59.5611C140.99 58.3764 141.443 57.017 141.434 55.483C141.451 53.8807 140.936 52.5511 139.888 51.4943C138.84 50.429 137.276 49.7812 135.197 49.5511V49.3466C136.731 49.1761 137.997 48.6222 138.995 47.6847C140.001 46.7472 140.495 45.5455 140.479 44.0795C140.487 42.6051 140.076 41.2969 139.246 40.1548C138.425 39.0043 137.281 38.1009 135.814 37.4446C134.355 36.7884 132.674 36.4602 130.771 36.4602C128.826 36.4602 127.104 36.8097 125.603 37.5085C124.102 38.2074 122.92 39.1705 122.057 40.3977C121.202 41.625 120.77 43.0398 120.762 44.642H127.451C127.46 44.1136 127.607 43.6449 127.892 43.2358C128.177 42.8267 128.566 42.5071 129.061 42.277C129.564 42.0469 130.134 41.9318 130.771 41.9318C131.358 41.9318 131.873 42.0426 132.318 42.2642C132.77 42.4858 133.123 42.7926 133.374 43.1847C133.626 43.5767 133.747 44.0284 133.739 44.5398C133.747 45.0682 133.6 45.5369 133.299 45.946C133.005 46.3551 132.59 46.6747 132.054 46.9048C131.526 47.1349 130.914 47.25 130.218 47.25H127.602V52.1591H130.218C130.972 52.1591 131.639 52.2741 132.217 52.5043C132.796 52.7344 133.244 53.054 133.563 53.4631C133.89 53.8722 134.049 54.3409 134.04 54.8693C134.049 55.4062 133.915 55.8835 133.638 56.3011C133.361 56.7188 132.976 57.0469 132.481 57.2855C131.987 57.5156 131.417 57.6307 130.771 57.6307C130.1 57.6307 129.505 57.5199 128.986 57.2983C128.466 57.0767 128.055 56.7699 127.753 56.3778C127.46 55.9773 127.309 55.5256 127.301 55.0227H120.259C120.267 56.6506 120.72 58.0909 121.617 59.3438C122.514 60.5966 123.746 61.581 125.314 62.2969ZM11.8033 17C14.5194 17 16.7213 14.7614 16.7213 12C16.7213 9.23858 14.5194 7 11.8033 7C9.08712 7 6.88525 9.23858 6.88525 12C6.88525 14.7614 9.08712 17 11.8033 17ZM168.197 17C170.913 17 173.115 14.7614 173.115 12C173.115 9.23858 170.913 7 168.197 7C165.481 7 163.279 9.23858 163.279 12C163.279 14.7614 165.481 17 168.197 17ZM11.8033 92C14.5194 92 16.7213 89.7614 16.7213 87C16.7213 84.2386 14.5194 82 11.8033 82C9.08712 82 6.88525 84.2386 6.88525 87C6.88525 89.7614 9.08712 92 11.8033 92ZM168.197 92C170.913 92 173.115 89.7614 173.115 87C173.115 84.2386 170.913 82 168.197 82C165.481 82 163.279 84.2386 163.279 87C163.279 89.7614 165.481 92 168.197 92Z" fill="black"/>
<path d="M82.2052 47.4034H83.2052V46.4034H82.2052V47.4034ZM82.2052 52.9261V53.9261H83.2052V52.9261H82.2052ZM77.5452 52.9261L76.5486 52.8428L76.4581 53.9261H77.5452V52.9261ZM77.5693 47.4034V46.4034H76.4936L76.5719 47.4763L77.5693 47.4034ZM82.2052 47.4034H81.2052V52.9261H82.2052H83.2052V47.4034H82.2052ZM77.6281 50.7273H78.6281V49.142H77.6281H76.6281V50.7273H77.6281ZM77.5693 47.4034V48.4034H82.2052V47.4034V46.4034H77.5693V47.4034ZM77.5452 52.9261L78.5417 53.0094C78.5997 52.3154 78.6281 51.5541 78.6281 50.7273H77.6281H76.6281C76.6281 51.5097 76.6012 52.2144 76.5486 52.8428L77.5452 52.9261ZM77.6281 49.142H78.6281C78.6281 48.499 78.6078 47.8949 78.5666 47.3306L77.5693 47.4034L76.5719 47.4763C76.6091 47.9853 76.6281 48.5403 76.6281 49.142H77.6281ZM82.2052 52.9261V51.9261H77.5452V52.9261V53.9261H82.2052V52.9261ZM0 0V-2H-2V0H0ZM180 0H182V-2H180V0ZM180 99V101H182V99H180ZM0 99H-2V101H0V99ZM38.3327 42.5455H36.3327V44.5455H38.3327V42.5455ZM38.3327 36.8182V34.8182H36.3327V36.8182H38.3327ZM60.7154 36.8182H62.7154V34.8182H60.7154V36.8182ZM60.7154 42.5455V44.5455H62.7154V42.5455H60.7154ZM52.9694 42.5455V40.5455H50.9694V42.5455H52.9694ZM52.9694 63V65H54.9694V63H52.9694ZM46.0786 63H44.0786V65H46.0786V63ZM46.0786 42.5455H48.0786V40.5455H46.0786V42.5455ZM70.7875 52.9261H68.7875V54.9261H70.7875V52.9261ZM70.7875 47.4034V45.4034H68.7875V47.4034H70.7875ZM62.086 54.1534V52.1534H59.9946L60.088 54.2427L62.086 54.1534ZM68.9768 54.1534L70.9761 54.2058L71.03 52.1534H68.9768V54.1534ZM70.0456 56.9787L68.7858 58.532L68.7943 58.5389L70.0456 56.9787ZM75.9431 57.1577L77.1558 58.7481L77.1591 58.7455L75.9431 57.1577ZM77.2634 54.8438L75.3143 54.3954L75.3117 54.4067L77.2634 54.8438ZM77.2131 45.0895L75.2793 45.5998V45.5998L77.2131 45.0895ZM75.8551 42.7756L77.0912 41.2033V41.2033L75.8551 42.7756ZM70.5989 42.5071L71.4956 44.2948L70.5989 42.5071ZM69.3037 43.8622L71.1612 44.6036V44.6036L69.3037 43.8622ZM68.9265 45.9716V47.9716H70.8859L70.9261 46.0126L68.9265 45.9716ZM62.0357 45.9716L60.0447 45.7815L59.8356 47.9716H62.0357V45.9716ZM67.2918 37.7386L68.2277 39.5061L67.2918 37.7386ZM79.1622 38.0071L78.1067 39.706L78.1168 39.7122L79.1622 38.0071ZM83.0351 42.4048L81.2311 43.2683L81.2357 43.2779L83.0351 42.4048ZM83.0854 57.5028L84.8942 58.3562L84.8957 58.353L83.0854 57.5028ZM79.2376 61.8494L80.2664 63.5646L80.2728 63.5607L79.2376 61.8494ZM67.4553 62.233L66.6099 64.0455L66.6213 64.0508L67.4553 62.233ZM63.6075 59.0369L61.9489 60.1547L61.9569 60.1663L63.6075 59.0369ZM87.6217 36.8182V34.8182H85.6217V36.8182H87.6217ZM96.3232 36.8182L98.1779 36.0696L97.6728 34.8182H96.3232V36.8182ZM102.309 51.6477L100.454 52.3963L100.959 53.6477H102.309V51.6477ZM102.61 51.6477V53.6477H103.96L104.465 52.3963L102.61 51.6477ZM108.596 36.8182V34.8182H107.246L106.741 36.0696L108.596 36.8182ZM117.298 36.8182H119.298V34.8182H117.298V36.8182ZM117.298 63V65H119.298V63H117.298ZM110.457 63H108.457V65H110.457V63ZM110.457 47.8636H112.457V45.8636H110.457V47.8636ZM110.256 47.8636V45.8636H108.881L108.389 47.1467L110.256 47.8636ZM104.522 62.7955V64.7955H105.896L106.389 63.5124L104.522 62.7955ZM100.397 62.7955L98.5287 63.5082L99.0197 64.7955H100.397V62.7955ZM94.6634 47.7614L96.5321 47.0486L96.0411 45.7614H94.6634V47.7614ZM94.4622 47.7614V45.7614H92.4622V47.7614H94.4622ZM94.4622 63V65H96.4622V63H94.4622ZM87.6217 63H85.6217V65H87.6217V63ZM125.314 62.2969L124.483 64.1162L124.495 64.1215L125.314 62.2969ZM121.617 59.3438L123.243 58.1795L121.617 59.3438ZM120.259 55.0227V53.0227H118.248L118.259 55.033L120.259 55.0227ZM127.301 55.0227L129.3 54.9894L129.267 53.0227H127.301V55.0227ZM127.753 56.3778L126.14 57.5597L126.154 57.5789L126.168 57.5978L127.753 56.3778ZM128.986 57.2983L128.201 59.1381L128.986 57.2983ZM132.481 57.2855L133.325 59.0989L133.338 59.0929L133.35 59.0868L132.481 57.2855ZM133.638 56.3011L135.305 57.4056L133.638 56.3011ZM134.04 54.8693L132.041 54.8376L132.04 54.8691L132.041 54.9005L134.04 54.8693ZM133.563 53.4631L131.985 54.6918L131.992 54.7018L132 54.7117L133.563 53.4631ZM127.602 52.1591H125.602V54.1591H127.602V52.1591ZM127.602 47.25V45.25H125.602V47.25H127.602ZM132.054 46.9048L131.265 45.0667L131.255 45.0713L132.054 46.9048ZM133.299 45.946L131.689 44.7587L131.681 44.7695L131.673 44.7804L133.299 45.946ZM133.739 44.5398L131.739 44.507L131.738 44.5392L131.739 44.5715L133.739 44.5398ZM133.374 43.1847L131.691 44.2645V44.2645L133.374 43.1847ZM132.318 42.2642L131.425 44.054L131.432 44.0573L131.438 44.0605L132.318 42.2642ZM129.061 42.277L128.229 40.4582L128.217 40.4636L129.061 42.277ZM127.892 43.2358L129.533 44.3791L127.892 43.2358ZM127.451 44.642V46.642H129.42L129.451 44.6738L127.451 44.642ZM120.762 44.642L118.762 44.6316L118.751 46.642H120.762V44.642ZM122.057 40.3977L120.421 39.2469L120.416 39.2544L122.057 40.3977ZM125.603 37.5085L126.447 39.3215L125.603 37.5085ZM135.814 37.4446L134.993 39.2685L134.997 39.2703L135.814 37.4446ZM139.246 40.1548L137.619 41.317L137.624 41.3238L137.628 41.3306L139.246 40.1548ZM140.479 44.0795L138.479 44.0682L138.479 44.0853L138.479 44.1024L140.479 44.0795ZM138.995 47.6847L137.631 46.2215L137.625 46.2272L138.995 47.6847ZM135.197 49.3466L134.976 47.3588L133.197 47.5565V49.3466H135.197ZM135.197 49.5511H133.197V51.342L134.977 51.539L135.197 49.5511ZM139.888 51.4943L138.462 52.8968L138.467 52.9025L139.888 51.4943ZM141.434 55.483L139.434 55.462L139.434 55.478L139.434 55.4939L141.434 55.483ZM140.076 59.5611L138.493 58.3396L138.487 58.3466L140.076 59.5611ZM136.291 62.348L135.523 60.5015L135.52 60.5029L136.291 62.348ZM77.5452 52.9261L79.5382 53.0927L79.7193 50.9261H77.5452V52.9261ZM77.5693 47.4034V49.4034H79.7207L79.564 47.2577L77.5693 47.4034ZM0 0V2H180V0V-2H0V0ZM180 0H178V99H180H182V0H180ZM180 99V97H0V99V101H180V99ZM0 99H2V0H0H-2V99H0ZM38.3327 42.5455H40.3327V36.8182H38.3327H36.3327V42.5455H38.3327ZM38.3327 36.8182V38.8182H60.7154V36.8182V34.8182H38.3327V36.8182ZM60.7154 36.8182H58.7154V42.5455H60.7154H62.7154V36.8182H60.7154ZM60.7154 42.5455V40.5455H52.9694V42.5455V44.5455H60.7154V42.5455ZM52.9694 42.5455H50.9694V63H52.9694H54.9694V42.5455H52.9694ZM52.9694 63V61H46.0786V63V65H52.9694V63ZM46.0786 63H48.0786V42.5455H46.0786H44.0786V63H46.0786ZM46.0786 42.5455V40.5455H38.3327V42.5455V44.5455H46.0786V42.5455ZM70.7875 52.9261H72.7875V47.4034H70.7875H68.7875V52.9261H70.7875ZM62.086 54.1534V56.1534H68.9768V54.1534V52.1534H62.086V54.1534ZM68.9768 54.1534L66.9775 54.101C66.9335 55.7782 67.4074 57.4141 68.7858 58.532L70.0456 56.9787L71.3055 55.4254C71.1917 55.3331 70.953 55.0855 70.9761 54.2058L68.9768 54.1534ZM70.0456 56.9787L68.7943 58.5389C70.013 59.5163 71.5436 59.8864 73.1516 59.8864V57.8864V55.8864C72.1272 55.8864 71.5872 55.6513 71.297 55.4185L70.0456 56.9787ZM73.1516 57.8864V59.8864C74.5951 59.8864 76.0292 59.6071 77.1558 58.7481L75.9431 57.1577L74.7304 55.5673C74.5827 55.6799 74.1559 55.8864 73.1516 55.8864V57.8864ZM75.9431 57.1577L77.1591 58.7455C78.2826 57.8852 78.9111 56.6384 79.2151 55.2808L77.2634 54.8438L75.3117 54.4067C75.1463 55.1456 74.8946 55.4415 74.7271 55.5698L75.9431 57.1577ZM77.2131 45.0895L79.1469 44.5792C78.7983 43.2582 78.165 42.0475 77.0912 41.2033L75.8551 42.7756L74.6189 44.3478C74.8026 44.4922 75.0746 44.8242 75.2793 45.5998L77.2131 45.0895ZM75.8551 42.7756L77.0912 41.2033C76.0063 40.3504 74.6712 40.0341 73.3024 40.0341V42.0341V44.0341C74.0798 44.0341 74.4464 44.2121 74.6189 44.3478L75.8551 42.7756ZM73.3024 42.0341V40.0341C72 40.0341 70.7362 40.2008 69.7023 40.7194L70.5989 42.5071L71.4956 44.2948C71.7191 44.1827 72.2576 44.0341 73.3024 44.0341V42.0341ZM70.5989 42.5071L69.7023 40.7194C68.6882 41.228 67.883 42.0267 67.4462 43.1208L69.3037 43.8622L71.1612 44.6036C71.194 44.5216 71.2522 44.4169 71.4956 44.2948L70.5989 42.5071ZM69.3037 43.8622L67.4463 43.1208C67.1007 43.9865 66.9473 44.9391 66.9269 45.9306L68.9265 45.9716L70.9261 46.0126C70.9393 45.3677 71.0373 44.9141 71.1612 44.6036L69.3037 43.8622ZM68.9265 45.9716V43.9716H62.0357V45.9716V47.9716H68.9265V45.9716ZM62.0357 45.9716L64.0266 46.1617C64.1674 44.6872 64.5951 43.378 65.2977 42.2059L63.5823 41.1776L61.867 40.1492C60.8427 41.8578 60.2392 43.7446 60.0447 45.7815L62.0357 45.9716ZM63.5823 41.1776L65.2977 42.2059C65.9579 41.1047 66.9124 40.2027 68.2277 39.5061L67.2918 37.7386L66.3559 35.9711C64.4522 36.9792 62.9337 38.3697 61.867 40.1492L63.5823 41.1776ZM67.2918 37.7386L68.2277 39.5061C69.4722 38.8472 71.1316 38.4602 73.3024 38.4602V36.4602V34.4602C70.6782 34.4602 68.3305 34.9256 66.3559 35.9711L67.2918 37.7386ZM73.3024 36.4602V38.4602C75.2331 38.4602 76.8089 38.8996 78.1067 39.7059L79.1622 38.0071L80.2176 36.3083C78.1958 35.0521 75.8651 34.4602 73.3024 34.4602V36.4602ZM79.1622 38.0071L78.1168 39.7122C79.4294 40.5169 80.4697 41.6774 81.2311 43.2683L83.0351 42.4048L84.8391 41.5414C83.7731 39.3141 82.2314 37.5428 80.2075 36.302L79.1622 38.0071ZM83.0351 42.4048L81.2357 43.2779C81.9978 44.8485 82.4183 46.7989 82.4183 49.1932H84.4183H86.4183C86.4183 46.3374 85.9167 43.7623 84.8345 41.5318L83.0351 42.4048ZM84.4183 49.1932H82.4183V50.7273H84.4183H86.4183V49.1932H84.4183ZM84.4183 50.7273H82.4183C82.4183 53.1314 82.0111 55.0856 81.2751 56.6526L83.0854 57.5028L84.8957 58.353C85.937 56.136 86.4183 53.5731 86.4183 50.7273H84.4183ZM83.0854 57.5028L81.2766 56.6495C80.5448 58.2007 79.5208 59.3407 78.2024 60.1382L79.2376 61.8494L80.2728 63.5607C82.3076 62.3298 83.8488 60.5721 84.8942 58.3562L83.0854 57.5028ZM79.2376 61.8494L78.2088 60.1343C76.9043 60.9168 75.2488 61.358 73.1516 61.358V63.358V65.358C75.8158 65.358 78.2177 64.7934 80.2664 63.5645L79.2376 61.8494ZM73.1516 63.358V61.358C71.2193 61.358 69.6148 61.0233 68.2893 60.4151L67.4553 62.233L66.6213 64.0508C68.5652 64.9426 70.7582 65.358 73.1516 65.358V63.358ZM67.4553 62.233L68.3007 60.4204C66.9725 59.8009 65.9786 58.9606 65.2581 57.9075L63.6075 59.0369L61.9569 60.1663C63.1141 61.8576 64.6855 63.1479 66.6099 64.0455L67.4553 62.233ZM63.6075 59.0369L65.266 57.9192C64.5663 56.8811 64.1535 55.6195 64.084 54.0641L62.086 54.1534L60.088 54.2427C60.1861 56.4373 60.7876 58.4314 61.949 60.1547L63.6075 59.0369ZM87.6217 36.8182V38.8182H96.3232V36.8182V34.8182H87.6217V36.8182ZM96.3232 36.8182L94.4686 37.5667L100.454 52.3963L102.309 51.6477L104.163 50.8992L98.1779 36.0696L96.3232 36.8182ZM102.309 51.6477V53.6477H102.61V51.6477V49.6477H102.309V51.6477ZM102.61 51.6477L104.465 52.3963L110.451 37.5667L108.596 36.8182L106.741 36.0696L100.756 50.8992L102.61 51.6477ZM108.596 36.8182V38.8182H117.298V36.8182V34.8182H108.596V36.8182ZM117.298 36.8182H115.298V63H117.298H119.298V36.8182H117.298ZM117.298 63V61H110.457V63V65H117.298V63ZM110.457 63H112.457V47.8636H110.457H108.457V63H110.457ZM110.457 47.8636V45.8636H110.256V47.8636V49.8636H110.457V47.8636ZM110.256 47.8636L108.389 47.1467L102.655 62.0785L104.522 62.7955L106.389 63.5124L112.123 48.5806L110.256 47.8636ZM104.522 62.7955V60.7955H100.397V62.7955V64.7955H104.522V62.7955ZM100.397 62.7955L102.266 62.0827L96.5321 47.0486L94.6634 47.7614L92.7947 48.4741L98.5287 63.5082L100.397 62.7955ZM94.6634 47.7614V45.7614H94.4622V47.7614V49.7614H94.6634V47.7614ZM94.4622 47.7614H92.4622V63H94.4622H96.4622V47.7614H94.4622ZM94.4622 63V61H87.6217V63V65H94.4622V63ZM87.6217 63H89.6217V36.8182H87.6217H85.6217V63H87.6217ZM130.721 63.358V61.358C128.926 61.358 127.41 61.0456 126.133 60.4722L125.314 62.2969L124.495 64.1215C126.369 64.9629 128.459 65.358 130.721 65.358V63.358ZM125.314 62.2969L126.145 60.4776C124.856 59.8893 123.913 59.1158 123.243 58.1795L121.617 59.3438L119.991 60.508C121.114 62.0774 122.636 63.2727 124.483 64.1161L125.314 62.2969ZM121.617 59.3438L123.243 58.1795C122.601 57.2829 122.265 56.251 122.259 55.0124L120.259 55.0227L118.259 55.033C118.269 57.0502 118.839 58.8989 119.991 60.508L121.617 59.3438ZM120.259 55.0227V57.0227H127.301V55.0227V53.0227H120.259V55.0227ZM127.301 55.0227L125.301 55.0561C125.316 55.9668 125.599 56.8209 126.14 57.5597L127.753 56.3778L129.367 55.196C129.321 55.1337 129.302 55.0843 129.3 54.9894L127.301 55.0227ZM127.753 56.3778L126.168 57.5978C126.708 58.2983 127.411 58.8013 128.201 59.1381L128.986 57.2983L129.77 55.4585C129.52 55.3521 129.402 55.2415 129.338 55.1579L127.753 56.3778ZM128.986 57.2983L128.201 59.1381C129.011 59.4832 129.88 59.6307 130.771 59.6307V57.6307V55.6307C130.321 55.6307 130 55.5565 129.77 55.4585L128.986 57.2983ZM130.771 57.6307V59.6307C131.655 59.6307 132.522 59.4724 133.325 59.0989L132.481 57.2855L131.638 55.4722C131.451 55.5588 131.178 55.6307 130.771 55.6307V57.6307ZM132.481 57.2855L133.35 59.0868C134.137 58.7074 134.811 58.1515 135.305 57.4056L133.638 56.3011L131.971 55.1966C131.912 55.286 131.815 55.3863 131.612 55.4842L132.481 57.2855ZM133.638 56.3011L135.305 57.4056C135.821 56.627 136.054 55.7479 136.04 54.8381L134.04 54.8693L132.041 54.9005C132.043 55.0646 132.008 55.14 131.971 55.1966L133.638 56.3011ZM134.04 54.8693L136.04 54.901C136.056 53.9127 135.745 52.9902 135.125 52.2145L133.563 53.4631L132 54.7117C132.028 54.7458 132.033 54.7623 132.034 54.7649C132.035 54.7677 132.042 54.7873 132.041 54.8376L134.04 54.8693ZM133.563 53.4631L135.141 52.2343C134.563 51.4929 133.799 50.9811 132.956 50.6459L132.217 52.5043L131.478 54.3626C131.792 54.4877 131.925 54.615 131.985 54.6918L133.563 53.4631ZM132.217 52.5043L132.956 50.6459C132.099 50.3047 131.173 50.1591 130.218 50.1591V52.1591V54.1591C130.771 54.1591 131.179 54.2436 131.478 54.3626L132.217 52.5043ZM130.218 52.1591V50.1591H127.602V52.1591V54.1591H130.218V52.1591ZM127.602 52.1591H129.602V47.25H127.602H125.602V52.1591H127.602ZM127.602 47.25V49.25H130.218V47.25V45.25H127.602V47.25ZM130.218 47.25V49.25C131.133 49.25 132.026 49.0986 132.853 48.7383L132.054 46.9048L131.255 45.0713C131.025 45.1713 130.695 45.25 130.218 45.25V47.25ZM132.054 46.9048L132.842 48.7429C133.659 48.3924 134.386 47.8616 134.924 47.1116L133.299 45.946L131.673 44.7804C131.624 44.8487 131.521 44.957 131.265 45.0668L132.054 46.9048ZM133.299 45.946L134.908 47.1333C135.481 46.3569 135.753 45.4559 135.738 44.508L133.739 44.5398L131.739 44.5715C131.741 44.6804 131.72 44.717 131.689 44.7587L133.299 45.946ZM133.739 44.5398L135.738 44.5726C135.753 43.7075 135.542 42.8608 135.057 42.1048L133.374 43.1847L131.691 44.2645C131.709 44.2926 131.742 44.3494 131.739 44.507L133.739 44.5398ZM133.374 43.1847L135.057 42.1048C134.592 41.3797 133.95 40.8366 133.197 40.4679L132.318 42.2642L131.438 44.0605C131.591 44.135 131.653 44.2055 131.691 44.2645L133.374 43.1847ZM132.318 42.2642L133.21 40.4745C132.443 40.0916 131.612 39.9318 130.771 39.9318V41.9318V43.9318C131.104 43.9318 131.304 43.9936 131.425 44.054L132.318 42.2642ZM130.771 41.9318V39.9318C129.89 39.9318 129.03 40.0919 128.229 40.4583L129.061 42.277L129.893 44.0957C130.098 44.0019 130.378 43.9318 130.771 43.9318V41.9318ZM129.061 42.277L128.217 40.4636C127.433 40.8283 126.756 41.3667 126.251 42.0925L127.892 43.2358L129.533 44.3791C129.597 44.2867 129.699 44.1859 129.905 44.0903L129.061 42.277ZM127.892 43.2358L126.251 42.0925C125.724 42.8482 125.466 43.709 125.452 44.6103L127.451 44.642L129.451 44.6738C129.454 44.5182 129.489 44.4416 129.533 44.3791L127.892 43.2358ZM127.451 44.642V42.642H120.762V44.642V46.642H127.451V44.642ZM120.762 44.642L122.762 44.6525C122.768 43.4251 123.091 42.4117 123.698 41.541L122.057 40.3977L120.416 39.2544C119.312 40.8383 118.772 42.6544 118.762 44.6316L120.762 44.642ZM122.057 40.3977L123.693 41.5485C124.335 40.6362 125.23 39.8883 126.447 39.3215L125.603 37.5085L124.759 35.6955C122.974 36.5265 121.506 37.7047 120.421 39.2469L122.057 40.3977ZM125.603 37.5085L126.447 39.3215C127.641 38.7655 129.067 38.4602 130.771 38.4602V36.4602V34.4602C128.585 34.4602 126.566 34.8538 124.759 35.6955L125.603 37.5085ZM130.771 36.4602V38.4602C132.444 38.4602 133.837 38.7482 134.993 39.2685L135.814 37.4446L136.634 35.6207C134.873 34.8285 132.904 34.4602 130.771 34.4602V36.4602ZM135.814 37.4446L134.997 39.2703C136.185 39.8016 137.031 40.4936 137.619 41.317L139.246 40.1548L140.874 38.9926C139.819 37.515 138.376 36.4001 136.63 35.6189L135.814 37.4446ZM139.246 40.1548L137.628 41.3306C138.196 42.1117 138.485 42.9998 138.479 44.0682L140.479 44.0795L142.479 44.0909C142.489 42.2104 141.956 40.482 140.864 38.9791L139.246 40.1548ZM140.479 44.0795L138.479 44.1024C138.49 45.0474 138.196 45.6954 137.631 46.2215L138.995 47.6847L140.358 49.1478C141.806 47.7989 142.501 46.0435 142.479 44.0567L140.479 44.0795ZM138.995 47.6847L137.625 46.2272C136.983 46.831 136.138 47.2298 134.976 47.3588L135.197 49.3466L135.418 51.3344C137.325 51.1225 139.012 50.4133 140.365 49.1421L138.995 47.6847ZM135.197 49.3466H133.197V49.5511H135.197H137.197V49.3466H135.197ZM135.197 49.5511L134.977 51.539C136.779 51.7384 137.844 52.2689 138.462 52.8968L139.888 51.4943L141.313 50.0918C139.835 48.5891 137.773 47.8241 135.417 47.5633L135.197 49.5511ZM139.888 51.4943L138.467 52.9025C139.108 53.5485 139.446 54.3491 139.434 55.462L141.434 55.483L143.434 55.5039C143.456 53.4123 142.763 51.5537 141.308 50.0861L139.888 51.4943ZM141.434 55.483L139.434 55.4939C139.44 56.5945 139.127 57.5174 138.493 58.3396L140.076 59.5611L141.66 60.7826C142.853 59.2354 143.445 57.4396 143.434 55.472L141.434 55.483ZM140.076 59.5611L138.487 58.3466C137.83 59.2067 136.874 59.9393 135.523 60.5015L136.291 62.348L137.06 64.1945C138.945 63.4101 140.512 62.2848 141.665 60.7755L140.076 59.5611ZM136.291 62.348L135.52 60.5029C134.199 61.0552 132.613 61.358 130.721 61.358V63.358V65.358C133.037 65.358 135.164 64.9874 137.063 64.1931L136.291 62.348ZM16.7213 12H14.7213C14.7213 13.6881 13.3838 15 11.8033 15V17V19C15.655 19 18.7213 15.8347 18.7213 12H16.7213ZM11.8033 17V15C10.2227 15 8.88525 13.6881 8.88525 12H6.88525H4.88525C4.88525 15.8347 7.95152 19 11.8033 19V17ZM6.88525 12H8.88525C8.88525 10.3119 10.2227 9 11.8033 9V7V5C7.95152 5 4.88525 8.1653 4.88525 12H6.88525ZM11.8033 7V9C13.3838 9 14.7213 10.3119 14.7213 12H16.7213H18.7213C18.7213 8.1653 15.655 5 11.8033 5V7ZM173.115 12H171.115C171.115 13.6881 169.777 15 168.197 15V17V19C172.048 19 175.115 15.8347 175.115 12H173.115ZM168.197 17V15C166.616 15 165.279 13.6881 165.279 12H163.279H161.279C161.279 15.8347 164.345 19 168.197 19V17ZM163.279 12H165.279C165.279 10.3119 166.616 9 168.197 9V7V5C164.345 5 161.279 8.1653 161.279 12H163.279ZM168.197 7V9C169.777 9 171.115 10.3119 171.115 12H173.115H175.115C175.115 8.1653 172.048 5 168.197 5V7ZM16.7213 87H14.7213C14.7213 88.6881 13.3838 90 11.8033 90V92V94C15.655 94 18.7213 90.8347 18.7213 87H16.7213ZM11.8033 92V90C10.2227 90 8.88525 88.6881 8.88525 87H6.88525H4.88525C4.88525 90.8347 7.95152 94 11.8033 94V92ZM6.88525 87H8.88525C8.88525 85.3119 10.2227 84 11.8033 84V82V80C7.95152 80 4.88525 83.1653 4.88525 87H6.88525ZM11.8033 82V84C13.3838 84 14.7213 85.3119 14.7213 87H16.7213H18.7213C18.7213 83.1653 15.655 80 11.8033 80V82ZM173.115 87H171.115C171.115 88.6881 169.777 90 168.197 90V92V94C172.048 94 175.115 90.8347 175.115 87H173.115ZM168.197 92V90C166.616 90 165.279 88.6881 165.279 87H163.279H161.279C161.279 90.8347 164.345 94 168.197 94V92ZM163.279 87H165.279C165.279 85.3119 166.616 84 168.197 84V82V80C164.345 80 161.279 83.1653 161.279 87H163.279ZM168.197 82V84C169.777 84 171.115 85.3119 171.115 87H173.115H175.115C175.115 83.1653 172.048 80 168.197 80V82ZM77.5452 52.9261V50.9261H70.7875V52.9261V54.9261H77.5452V52.9261ZM70.7875 47.4034V49.4034H77.5693V47.4034V45.4034H70.7875V47.4034ZM77.5693 47.4034L79.564 47.2577C79.4927 46.282 79.359 45.383 79.1469 44.5792L77.2131 45.0895L75.2793 45.5998C75.4122 46.1033 75.516 46.7469 75.5746 47.5491L77.5693 47.4034ZM77.2634 54.8438L79.2125 55.2921C79.366 54.6248 79.4717 53.888 79.5382 53.0927L77.5452 52.9261L75.5521 52.7595C75.4973 53.4153 75.4152 53.9569 75.3143 54.3954L77.2634 54.8438Z" fill="black" mask="url(#path-1-inside-1_8788_2394)"/>
</svg>
